<svg width="24" height="19" viewBox="0 0 24 19" fill="none" xmlns="http://www.w3.org/2000/svg">
<path d="M3 4.5C3 2.01472 5.01472 0 7.5 0C9.98528 0 12 2.01472 12 4.5C12 6.98528 9.98528 9 7.5 9C5.01472 9 3 6.98528 3 4.5ZM7.5 1.5C5.84315 1.5 4.5 2.84315 4.5 4.5C4.5 6.15685 5.84315 7.5 7.5 7.5C9.15685 7.5 10.5 6.15685 10.5 4.5C10.5 2.84315 9.15685 1.5 7.5 1.5ZM14.5 5.5C14.5 3.567 16.067 2 18 2C19.933 2 21.5 3.567 21.5 5.5C21.5 7.433 19.933 9 18 9C16.067 9 14.5 7.433 14.5 5.5ZM18 3.5C16.8954 3.5 16 4.39543 16 5.5C16 6.60457 16.8954 7.5 18 7.5C19.1046 7.5 20 6.60457 20 5.5C20 4.39543 19.1046 3.5 18 3.5ZM0 13.25C0 12.0074 1.00736 11 2.25 11H12.75C12.9861 11 13.2137 11.0364 13.4276 11.1038C13.1612 11.4109 13 11.8116 13 12.25C13 12.3531 13.0089 12.4542 13.026 12.5524C12.9406 12.5186 12.8475 12.5 12.75 12.5H2.25C1.83579 12.5 1.5 12.8358 1.5 13.25V13.7453L1.50071 13.7631C1.5017 13.7828 1.50393 13.8169 1.50892 13.8635C1.51891 13.9567 1.53978 14.098 1.58308 14.2712C1.66987 14.6184 1.84425 15.084 2.19375 15.55C2.86678 16.4474 4.30799 17.5 7.5 17.5C10.692 17.5 12.1332 16.4474 12.8063 15.55C12.878 15.4544 12.9423 15.3587 13.0001 15.2642C13.0049 15.8717 13.3192 16.4054 13.7932 16.7155C13.7271 16.7925 13.6579 16.8687 13.5852 16.9439C13.5363 16.9876 13.4898 17.034 13.446 17.0829C12.3316 18.155 10.4889 19 7.5 19C3.94201 19 2.00822 17.8026 0.99375 16.45C0.499502 15.791 0.252004 15.1316 0.127862 14.635C0.0656885 14.3863 0.033825 14.1761 0.0174517 14.0233C0.00925159 13.9467 0.00489402 13.8842 0.00258368 13.838C0.00142783 13.8149 0.000782192 13.7958 0.000425398 13.781L7.89165e-05 13.7622L1.62721e-05 13.7552L3.63588e-06 13.7524L0 13.7512V13.25ZM14.75 11.5C14.3358 11.5 14 11.8358 14 12.25C14 12.6642 14.3358 13 14.75 13H23.25C23.6642 13 24 12.6642 24 12.25C24 11.8358 23.6642 11.5 23.25 11.5H14.75ZM14.75 14.5C14.3358 14.5 14 14.8358 14 15.25C14 15.6642 14.3358 16 14.75 16H23.25C23.6642 16 24 15.6642 24 15.25C24 14.8358 23.6642 14.5 23.25 14.5H14.75ZM14.75 17.5C14.3358 17.5 14 17.8358 14 18.25C14 18.6642 14.3358 19 14.75 19H23.25C23.6642 19 24 18.6642 24 18.25C24 17.8358 23.6642 17.5 23.25 17.5H14.75Z" fill="#4E5969"/>
</svg>
