<svg width="14" height="14" viewBox="0 0 14 14" fill="none" xmlns="http://www.w3.org/2000/svg">
<path d="M7 1.3125C3.86395 1.3125 1.3125 3.86395 1.3125 7C1.3125 10.1361 3.86395 12.6875 7 12.6875C10.1361 12.6875 12.6875 10.1361 12.6875 7C12.6875 3.86395 10.1361 1.3125 7 1.3125ZM7 10.06C6.89184 10.06 6.78611 10.028 6.69617 9.96787C6.60624 9.90778 6.53615 9.82237 6.49475 9.72244C6.45336 9.62252 6.44253 9.51256 6.46363 9.40647C6.48473 9.30039 6.53682 9.20295 6.6133 9.12646C6.68978 9.04998 6.78723 8.9979 6.89331 8.9768C6.99939 8.9557 7.10935 8.96653 7.20928 9.00792C7.30921 9.04931 7.39462 9.1194 7.45471 9.20934C7.5148 9.29927 7.54688 9.405 7.54688 9.51316C7.54688 9.6582 7.48926 9.7973 7.3867 9.89986C7.28414 10.0024 7.14504 10.06 7 10.06ZM7.59391 4.55984L7.43695 7.89578C7.43695 8.01181 7.39086 8.12309 7.30881 8.20514C7.22677 8.28719 7.11549 8.33328 6.99945 8.33328C6.88342 8.33328 6.77214 8.28719 6.69009 8.20514C6.60805 8.12309 6.56195 8.01181 6.56195 7.89578L6.405 4.56148V4.56012C6.40156 4.47998 6.41437 4.39998 6.44267 4.32492C6.47097 4.24987 6.51416 4.18132 6.56965 4.12339C6.62513 4.06547 6.69177 4.01938 6.76554 3.98789C6.83931 3.9564 6.9187 3.94017 6.99891 3.94017C7.07912 3.94017 7.1585 3.9564 7.23227 3.98789C7.30604 4.01938 7.37268 4.06547 7.42817 4.12339C7.48365 4.18132 7.52685 4.24987 7.55514 4.32492C7.58344 4.39998 7.59625 4.47998 7.59281 4.56012L7.59391 4.55984Z" fill="#F63031"/>
</svg>
