<svg width="14" height="18" viewBox="0 0 14 18" fill="none" xmlns="http://www.w3.org/2000/svg">
<path d="M13.25 2.125C13.2495 1.62788 13.0518 1.15126 12.7003 0.799746C12.3487 0.448227 11.8721 0.250517 11.375 0.25H2.625C2.12788 0.250517 1.65126 0.448227 1.29975 0.799746C0.948227 1.15126 0.750517 1.62788 0.75 2.125V15.875C0.750517 16.3721 0.948227 16.8487 1.29975 17.2003C1.65126 17.5518 2.12788 17.7495 2.625 17.75H11.375C11.8721 17.7495 12.3487 17.5518 12.7003 17.2003C13.0518 16.8487 13.2495 16.3721 13.25 15.875V2.125ZM3.5625 15.875C3.37708 15.875 3.19582 15.82 3.04165 15.717C2.88748 15.614 2.76732 15.4676 2.69636 15.2963C2.62541 15.125 2.60684 14.9365 2.64301 14.7546C2.67919 14.5727 2.76848 14.4057 2.89959 14.2746C3.0307 14.1435 3.19775 14.0542 3.3796 14.018C3.56146 13.9818 3.74996 14.0004 3.92127 14.0714C4.09257 14.1423 4.23899 14.2625 4.342 14.4167C4.44502 14.5708 4.5 14.7521 4.5 14.9375C4.5 15.1861 4.40123 15.4246 4.22541 15.6004C4.0496 15.7762 3.81114 15.875 3.5625 15.875ZM3.5625 12.75C3.37708 12.75 3.19582 12.695 3.04165 12.592C2.88748 12.489 2.76732 12.3426 2.69636 12.1713C2.62541 12 2.60684 11.8115 2.64301 11.6296C2.67919 11.4477 2.76848 11.2807 2.89959 11.1496C3.0307 11.0185 3.19775 10.9292 3.3796 10.893C3.56146 10.8568 3.74996 10.8754 3.92127 10.9464C4.09257 11.0173 4.23899 11.1375 4.342 11.2917C4.44502 11.4458 4.5 11.6271 4.5 11.8125C4.5 12.0611 4.40123 12.2996 4.22541 12.4754C4.0496 12.6512 3.81114 12.75 3.5625 12.75ZM3.5625 9.625C3.37708 9.625 3.19582 9.57002 3.04165 9.467C2.88748 9.36399 2.76732 9.21757 2.69636 9.04626C2.62541 8.87496 2.60684 8.68646 2.64301 8.5046C2.67919 8.32275 2.76848 8.1557 2.89959 8.02459C3.0307 7.89348 3.19775 7.80419 3.3796 7.76801C3.56146 7.73184 3.74996 7.75041 3.92127 7.82136C4.09257 7.89232 4.23899 8.01248 4.342 8.16665C4.44502 8.32082 4.5 8.50208 4.5 8.6875C4.5 8.93614 4.40123 9.1746 4.22541 9.35041C4.0496 9.52623 3.81114 9.625 3.5625 9.625ZM7 15.875C6.81458 15.875 6.63332 15.82 6.47915 15.717C6.32498 15.614 6.20482 15.4676 6.13386 15.2963C6.06291 15.125 6.04434 14.9365 6.08051 14.7546C6.11669 14.5727 6.20598 14.4057 6.33709 14.2746C6.4682 14.1435 6.63525 14.0542 6.8171 14.018C6.99896 13.9818 7.18746 14.0004 7.35877 14.0714C7.53007 14.1423 7.67649 14.2625 7.7795 14.4167C7.88252 14.5708 7.9375 14.7521 7.9375 14.9375C7.9375 15.1861 7.83873 15.4246 7.66291 15.6004C7.4871 15.7762 7.24864 15.875 7 15.875ZM7 12.75C6.81458 12.75 6.63332 12.695 6.47915 12.592C6.32498 12.489 6.20482 12.3426 6.13386 12.1713C6.06291 12 6.04434 11.8115 6.08051 11.6296C6.11669 11.4477 6.20598 11.2807 6.33709 11.1496C6.4682 11.0185 6.63525 10.9292 6.8171 10.893C6.99896 10.8568 7.18746 10.8754 7.35877 10.9464C7.53007 11.0173 7.67649 11.1375 7.7795 11.2917C7.88252 11.4458 7.9375 11.6271 7.9375 11.8125C7.9375 12.0611 7.83873 12.2996 7.66291 12.4754C7.4871 12.6512 7.24864 12.75 7 12.75ZM7 9.625C6.81458 9.625 6.63332 9.57002 6.47915 9.467C6.32498 9.36399 6.20482 9.21757 6.13386 9.04626C6.06291 8.87496 6.04434 8.68646 6.08051 8.5046C6.11669 8.32275 6.20598 8.1557 6.33709 8.02459C6.4682 7.89348 6.63525 7.80419 6.8171 7.76801C6.99896 7.73184 7.18746 7.75041 7.35877 7.82136C7.53007 7.89232 7.67649 8.01248 7.7795 8.16665C7.88252 8.32082 7.9375 8.50208 7.9375 8.6875C7.9375 8.93614 7.83873 9.1746 7.66291 9.35041C7.4871 9.52623 7.24864 9.625 7 9.625ZM11.375 14.9375C11.375 15.1861 11.2762 15.4246 11.1004 15.6004C10.9246 15.7762 10.6861 15.875 10.4375 15.875C10.1889 15.875 9.9504 15.7762 9.77459 15.6004C9.59877 15.4246 9.5 15.1861 9.5 14.9375V11.8125C9.5 11.5639 9.59877 11.3254 9.77459 11.1496C9.9504 10.9738 10.1889 10.875 10.4375 10.875C10.6861 10.875 10.9246 10.9738 11.1004 11.1496C11.2762 11.3254 11.375 11.5639 11.375 11.8125V14.9375ZM10.4375 9.625C10.2521 9.625 10.0708 9.57002 9.91665 9.467C9.76248 9.36399 9.64232 9.21757 9.57136 9.04626C9.50041 8.87496 9.48184 8.68646 9.51801 8.5046C9.55419 8.32275 9.64348 8.1557 9.77459 8.02459C9.9057 7.89348 10.0727 7.80419 10.2546 7.76801C10.4365 7.73184 10.625 7.75041 10.7963 7.82136C10.9676 7.89232 11.114 8.01248 11.217 8.16665C11.32 8.32082 11.375 8.50208 11.375 8.6875C11.375 8.93614 11.2762 9.1746 11.1004 9.35041C10.9246 9.52623 10.6861 9.625 10.4375 9.625ZM11.1918 5.6918C11.0746 5.80902 10.9157 5.87492 10.75 5.875H3.25C3.08424 5.875 2.92527 5.80915 2.80806 5.69194C2.69085 5.57473 2.625 5.41576 2.625 5.25V2.75C2.625 2.58424 2.69085 2.42527 2.80806 2.30806C2.92527 2.19085 3.08424 2.125 3.25 2.125H10.75C10.9158 2.125 11.0747 2.19085 11.1919 2.30806C11.3092 2.42527 11.375 2.58424 11.375 2.75V5.25C11.3749 5.41573 11.309 5.57465 11.1918 5.6918Z" fill="white"/>
</svg>
