<svg width="343" height="24" viewBox="0 0 343 24" fill="none" xmlns="http://www.w3.org/2000/svg">
<rect y="11.5" width="106" height="1" fill="#86909C"/>
<path d="M124.256 17.128C123.925 17.128 123.669 17.0373 123.488 16.856C123.317 16.664 123.232 16.4027 123.232 16.072V6.76C123.232 6.41867 123.323 6.16267 123.504 5.992C123.685 5.81067 123.941 5.72 124.272 5.72H128.128C129.365 5.72 130.32 6.02933 130.992 6.648C131.664 7.26667 132 8.13067 132 9.24C132 10.3493 131.664 11.2187 130.992 11.848C130.32 12.4667 129.365 12.776 128.128 12.776H125.28V16.072C125.28 16.4027 125.195 16.664 125.024 16.856C124.853 17.0373 124.597 17.128 124.256 17.128ZM125.28 11.16H127.808C128.533 11.16 129.083 11 129.456 10.68C129.829 10.3493 130.016 9.86933 130.016 9.24C130.016 8.61067 129.829 8.136 129.456 7.816C129.083 7.496 128.533 7.336 127.808 7.336H125.28V11.16ZM136.943 17.16C136.058 17.16 135.295 16.9947 134.655 16.664C134.015 16.3333 133.519 15.864 133.167 15.256C132.826 14.648 132.655 13.928 132.655 13.096C132.655 12.2853 132.82 11.576 133.151 10.968C133.492 10.36 133.956 9.88533 134.543 9.544C135.14 9.192 135.818 9.016 136.575 9.016C137.13 9.016 137.626 9.10667 138.063 9.288C138.511 9.46933 138.89 9.73067 139.199 10.072C139.519 10.4133 139.759 10.8293 139.919 11.32C140.09 11.8 140.175 12.344 140.175 12.952C140.175 13.144 140.106 13.2933 139.967 13.4C139.839 13.496 139.652 13.544 139.407 13.544H134.271V12.392H138.767L138.511 12.632C138.511 12.1413 138.436 11.7307 138.287 11.4C138.148 11.0693 137.94 10.8187 137.663 10.648C137.396 10.4667 137.06 10.376 136.655 10.376C136.207 10.376 135.823 10.4827 135.503 10.696C135.194 10.8987 134.954 11.192 134.783 11.576C134.623 11.9493 134.543 12.3973 134.543 12.92V13.032C134.543 13.9067 134.746 14.5627 135.151 15C135.567 15.4267 136.175 15.64 136.975 15.64C137.252 15.64 137.562 15.608 137.903 15.544C138.255 15.4693 138.586 15.3467 138.895 15.176C139.119 15.048 139.316 14.9947 139.487 15.016C139.658 15.0267 139.791 15.0853 139.887 15.192C139.994 15.2987 140.058 15.432 140.079 15.592C140.1 15.7413 140.068 15.896 139.983 16.056C139.908 16.216 139.775 16.3547 139.583 16.472C139.21 16.7067 138.778 16.8827 138.287 17C137.807 17.1067 137.359 17.16 136.943 17.16ZM142.783 17.128C142.452 17.128 142.196 17.0427 142.015 16.872C141.844 16.6907 141.759 16.4347 141.759 16.104V10.056C141.759 9.72533 141.844 9.47467 142.015 9.304C142.185 9.13333 142.425 9.048 142.735 9.048C143.044 9.048 143.284 9.13333 143.455 9.304C143.625 9.47467 143.711 9.72533 143.711 10.056V11.064H143.551C143.7 10.424 143.993 9.93867 144.431 9.608C144.868 9.27733 145.449 9.08 146.175 9.016C146.399 8.99467 146.575 9.05333 146.703 9.192C146.841 9.32 146.921 9.52267 146.943 9.8C146.964 10.0667 146.9 10.2853 146.751 10.456C146.612 10.616 146.399 10.712 146.111 10.744L145.759 10.776C145.108 10.84 144.617 11.0427 144.287 11.384C143.956 11.7147 143.791 12.184 143.791 12.792V16.104C143.791 16.4347 143.705 16.6907 143.535 16.872C143.364 17.0427 143.113 17.128 142.783 17.128ZM150.81 17.16C150.352 17.16 149.866 17.112 149.354 17.016C148.842 16.92 148.384 16.7547 147.978 16.52C147.808 16.4133 147.685 16.2907 147.61 16.152C147.546 16.0027 147.52 15.8587 147.53 15.72C147.552 15.5707 147.605 15.4427 147.69 15.336C147.786 15.2293 147.904 15.16 148.042 15.128C148.192 15.096 148.352 15.1227 148.522 15.208C148.949 15.4107 149.349 15.5547 149.722 15.64C150.096 15.7147 150.464 15.752 150.826 15.752C151.338 15.752 151.717 15.6667 151.962 15.496C152.218 15.3147 152.346 15.08 152.346 14.792C152.346 14.5467 152.261 14.36 152.09 14.232C151.93 14.0933 151.685 13.992 151.354 13.928L149.754 13.624C149.093 13.496 148.586 13.256 148.234 12.904C147.893 12.5413 147.722 12.0773 147.722 11.512C147.722 11 147.861 10.5573 148.138 10.184C148.426 9.81067 148.821 9.52267 149.322 9.32C149.824 9.11733 150.4 9.016 151.05 9.016C151.52 9.016 151.957 9.06933 152.362 9.176C152.778 9.272 153.178 9.42667 153.562 9.64C153.722 9.72533 153.829 9.83733 153.882 9.976C153.946 10.1147 153.962 10.2587 153.93 10.408C153.898 10.5467 153.834 10.6747 153.738 10.792C153.642 10.8987 153.52 10.968 153.37 11C153.232 11.0213 153.072 10.9893 152.89 10.904C152.56 10.7333 152.24 10.6107 151.93 10.536C151.632 10.4613 151.344 10.424 151.066 10.424C150.544 10.424 150.154 10.5147 149.898 10.696C149.653 10.8773 149.53 11.1173 149.53 11.416C149.53 11.64 149.605 11.8267 149.754 11.976C149.904 12.1253 150.133 12.2267 150.442 12.28L152.042 12.584C152.736 12.712 153.258 12.9467 153.61 13.288C153.973 13.6293 154.154 14.088 154.154 14.664C154.154 15.4427 153.85 16.056 153.242 16.504C152.634 16.9413 151.824 17.16 150.81 17.16ZM159.327 17.16C158.516 17.16 157.812 16.9947 157.215 16.664C156.617 16.3333 156.153 15.864 155.823 15.256C155.492 14.6373 155.327 13.912 155.327 13.08C155.327 12.4507 155.417 11.8907 155.599 11.4C155.791 10.8987 156.063 10.472 156.415 10.12C156.767 9.75733 157.188 9.48533 157.679 9.304C158.169 9.112 158.719 9.016 159.327 9.016C160.137 9.016 160.841 9.18133 161.439 9.512C162.036 9.84267 162.5 10.312 162.831 10.92C163.161 11.528 163.327 12.248 163.327 13.08C163.327 13.7093 163.231 14.2747 163.039 14.776C162.857 15.2773 162.591 15.7093 162.239 16.072C161.887 16.424 161.465 16.696 160.975 16.888C160.484 17.0693 159.935 17.16 159.327 17.16ZM159.327 15.64C159.721 15.64 160.068 15.544 160.367 15.352C160.665 15.16 160.895 14.8773 161.055 14.504C161.225 14.12 161.311 13.6453 161.311 13.08C161.311 12.2267 161.129 11.592 160.767 11.176C160.404 10.7493 159.924 10.536 159.327 10.536C158.932 10.536 158.585 10.632 158.287 10.824C157.988 11.0053 157.753 11.288 157.583 11.672C157.423 12.0453 157.343 12.5147 157.343 13.08C157.343 13.9227 157.524 14.5627 157.887 15C158.249 15.4267 158.729 15.64 159.327 15.64ZM165.97 17.128C165.65 17.128 165.404 17.0427 165.234 16.872C165.063 16.6907 164.978 16.4347 164.978 16.104V10.056C164.978 9.72533 165.063 9.47467 165.234 9.304C165.404 9.13333 165.644 9.048 165.954 9.048C166.263 9.048 166.503 9.13333 166.674 9.304C166.844 9.47467 166.93 9.72533 166.93 10.056V11.144L166.754 10.744C166.988 10.1787 167.351 9.752 167.842 9.464C168.343 9.16533 168.908 9.016 169.538 9.016C170.167 9.016 170.684 9.13333 171.09 9.368C171.495 9.60267 171.799 9.96 172.002 10.44C172.204 10.9093 172.306 11.5067 172.306 12.232V16.104C172.306 16.4347 172.22 16.6907 172.05 16.872C171.879 17.0427 171.634 17.128 171.314 17.128C170.994 17.128 170.743 17.0427 170.562 16.872C170.391 16.6907 170.306 16.4347 170.306 16.104V12.328C170.306 11.72 170.188 11.2773 169.954 11C169.73 10.7227 169.378 10.584 168.898 10.584C168.311 10.584 167.842 10.7707 167.49 11.144C167.148 11.5067 166.978 11.992 166.978 12.6V16.104C166.978 16.7867 166.642 17.128 165.97 17.128ZM176.913 17.16C176.348 17.16 175.841 17.0533 175.393 16.84C174.956 16.616 174.609 16.3173 174.353 15.944C174.108 15.5707 173.985 15.1493 173.985 14.68C173.985 14.104 174.134 13.6507 174.433 13.32C174.732 12.9787 175.217 12.7333 175.889 12.584C176.561 12.4347 177.462 12.36 178.593 12.36H179.393V13.512H178.609C177.948 13.512 177.42 13.544 177.025 13.608C176.63 13.672 176.348 13.784 176.177 13.944C176.017 14.0933 175.937 14.3067 175.937 14.584C175.937 14.936 176.06 15.224 176.305 15.448C176.55 15.672 176.892 15.784 177.329 15.784C177.681 15.784 177.99 15.704 178.257 15.544C178.534 15.3733 178.753 15.144 178.913 14.856C179.073 14.568 179.153 14.2373 179.153 13.864V12.024C179.153 11.4907 179.036 11.1067 178.801 10.872C178.566 10.6373 178.172 10.52 177.617 10.52C177.308 10.52 176.972 10.5573 176.609 10.632C176.257 10.7067 175.884 10.8347 175.489 11.016C175.286 11.112 175.105 11.1387 174.945 11.096C174.796 11.0533 174.678 10.968 174.593 10.84C174.508 10.7013 174.465 10.552 174.465 10.392C174.465 10.232 174.508 10.0773 174.593 9.928C174.678 9.768 174.822 9.65067 175.025 9.576C175.516 9.37333 175.985 9.22933 176.433 9.144C176.892 9.05867 177.308 9.016 177.681 9.016C178.449 9.016 179.078 9.13333 179.569 9.368C180.07 9.60267 180.444 9.96 180.689 10.44C180.934 10.9093 181.057 11.5173 181.057 12.264V16.104C181.057 16.4347 180.977 16.6907 180.817 16.872C180.657 17.0427 180.428 17.128 180.129 17.128C179.83 17.128 179.596 17.0427 179.425 16.872C179.265 16.6907 179.185 16.4347 179.185 16.104V15.336H179.313C179.238 15.7093 179.089 16.0347 178.865 16.312C178.652 16.5787 178.38 16.7867 178.049 16.936C177.718 17.0853 177.34 17.16 176.913 17.16ZM185.759 17.16C184.874 17.16 184.207 16.9093 183.759 16.408C183.311 15.896 183.087 15.1493 183.087 14.168V6.6C183.087 6.26933 183.172 6.01867 183.343 5.848C183.514 5.67733 183.759 5.592 184.079 5.592C184.399 5.592 184.644 5.67733 184.815 5.848C184.996 6.01867 185.087 6.26933 185.087 6.6V14.072C185.087 14.5627 185.188 14.9253 185.391 15.16C185.604 15.3947 185.903 15.512 186.287 15.512C186.372 15.512 186.452 15.512 186.527 15.512C186.602 15.5013 186.676 15.4907 186.751 15.48C186.9 15.4587 187.002 15.5013 187.055 15.608C187.108 15.704 187.135 15.9067 187.135 16.216C187.135 16.4827 187.082 16.6907 186.975 16.84C186.868 16.9893 186.692 17.08 186.447 17.112C186.34 17.1227 186.228 17.1333 186.111 17.144C185.994 17.1547 185.876 17.16 185.759 17.16ZM193.756 17.128C193.425 17.128 193.169 17.0373 192.988 16.856C192.817 16.664 192.732 16.4027 192.732 16.072V6.648C192.732 6.30667 192.817 6.04533 192.988 5.864C193.169 5.68267 193.425 5.592 193.756 5.592C194.087 5.592 194.337 5.68267 194.508 5.864C194.689 6.04533 194.78 6.30667 194.78 6.648V16.072C194.78 16.4027 194.695 16.664 194.524 16.856C194.353 17.0373 194.097 17.128 193.756 17.128ZM198.048 17.128C197.728 17.128 197.482 17.0427 197.312 16.872C197.141 16.6907 197.056 16.4347 197.056 16.104V10.056C197.056 9.72533 197.141 9.47467 197.312 9.304C197.482 9.13333 197.722 9.048 198.032 9.048C198.341 9.048 198.581 9.13333 198.752 9.304C198.922 9.47467 199.008 9.72533 199.008 10.056V11.144L198.832 10.744C199.066 10.1787 199.429 9.752 199.92 9.464C200.421 9.16533 200.986 9.016 201.616 9.016C202.245 9.016 202.762 9.13333 203.168 9.368C203.573 9.60267 203.877 9.96 204.08 10.44C204.282 10.9093 204.384 11.5067 204.384 12.232V16.104C204.384 16.4347 204.298 16.6907 204.128 16.872C203.957 17.0427 203.712 17.128 203.392 17.128C203.072 17.128 202.821 17.0427 202.64 16.872C202.469 16.6907 202.384 16.4347 202.384 16.104V12.328C202.384 11.72 202.266 11.2773 202.032 11C201.808 10.7227 201.456 10.584 200.976 10.584C200.389 10.584 199.92 10.7707 199.568 11.144C199.226 11.5067 199.056 11.992 199.056 12.6V16.104C199.056 16.7867 198.72 17.128 198.048 17.128ZM207.951 17.128C207.631 17.128 207.38 17.0427 207.199 16.872C207.028 16.6907 206.943 16.4347 206.943 16.104V10.68H206.207C205.951 10.68 205.754 10.616 205.615 10.488C205.476 10.3493 205.407 10.1627 205.407 9.928C205.407 9.68267 205.476 9.496 205.615 9.368C205.754 9.24 205.951 9.176 206.207 9.176H207.519L206.943 9.704V9.16C206.943 8.06133 207.22 7.24 207.775 6.696C208.33 6.14133 209.13 5.816 210.175 5.72L210.719 5.672C210.932 5.65067 211.103 5.688 211.231 5.784C211.359 5.86933 211.444 5.98667 211.487 6.136C211.53 6.27467 211.535 6.41867 211.503 6.568C211.471 6.71733 211.402 6.85067 211.295 6.968C211.199 7.07467 211.071 7.13333 210.911 7.144L210.687 7.16C210.079 7.20267 209.636 7.35733 209.359 7.624C209.082 7.89067 208.943 8.296 208.943 8.84V9.432L208.687 9.176H210.303C210.559 9.176 210.756 9.24 210.895 9.368C211.034 9.496 211.103 9.68267 211.103 9.928C211.103 10.1627 211.034 10.3493 210.895 10.488C210.756 10.616 210.559 10.68 210.303 10.68H208.943V16.104C208.943 16.7867 208.612 17.128 207.951 17.128ZM215.608 17.16C214.797 17.16 214.093 16.9947 213.496 16.664C212.899 16.3333 212.435 15.864 212.104 15.256C211.773 14.6373 211.608 13.912 211.608 13.08C211.608 12.4507 211.699 11.8907 211.88 11.4C212.072 10.8987 212.344 10.472 212.696 10.12C213.048 9.75733 213.469 9.48533 213.96 9.304C214.451 9.112 215 9.016 215.608 9.016C216.419 9.016 217.123 9.18133 217.72 9.512C218.317 9.84267 218.781 10.312 219.112 10.92C219.443 11.528 219.608 12.248 219.608 13.08C219.608 13.7093 219.512 14.2747 219.32 14.776C219.139 15.2773 218.872 15.7093 218.52 16.072C218.168 16.424 217.747 16.696 217.256 16.888C216.765 17.0693 216.216 17.16 215.608 17.16ZM215.608 15.64C216.003 15.64 216.349 15.544 216.648 15.352C216.947 15.16 217.176 14.8773 217.336 14.504C217.507 14.12 217.592 13.6453 217.592 13.08C217.592 12.2267 217.411 11.592 217.048 11.176C216.685 10.7493 216.205 10.536 215.608 10.536C215.213 10.536 214.867 10.632 214.568 10.824C214.269 11.0053 214.035 11.288 213.864 11.672C213.704 12.0453 213.624 12.5147 213.624 13.08C213.624 13.9227 213.805 14.5627 214.168 15C214.531 15.4267 215.011 15.64 215.608 15.64Z" fill="#1D2129"/>
<rect x="237" y="11.5" width="106" height="1" fill="#86909C"/>
</svg>
