<svg width="19" height="19" viewBox="0 0 19 19" fill="none" xmlns="http://www.w3.org/2000/svg">
<path fill-rule="evenodd" clip-rule="evenodd" d="M0.25 9.625C0.25 4.44782 4.44782 0.25 9.625 0.25C14.8022 0.25 19 4.44782 19 9.625C19 14.8022 14.8022 19 9.625 19C4.44782 19 0.25 14.8022 0.25 9.625ZM9.625 1.75C5.27624 1.75 1.75 5.27624 1.75 9.625C1.75 13.9738 5.27624 17.5 9.625 17.5C13.9738 17.5 17.5 13.9738 17.5 9.625C17.5 5.27624 13.9738 1.75 9.625 1.75ZM7.5625 8.3125C7.5625 7.89829 7.89829 7.5625 8.3125 7.5625H9.8125C10.2267 7.5625 10.5625 7.89829 10.5625 8.3125V13.1875H11.875C12.2892 13.1875 12.625 13.5233 12.625 13.9375C12.625 14.3517 12.2892 14.6875 11.875 14.6875H7.75C7.33579 14.6875 7 14.3517 7 13.9375C7 13.5233 7.33579 13.1875 7.75 13.1875H9.0625V9.0625H8.3125C7.89829 9.0625 7.5625 8.72671 7.5625 8.3125Z" fill="#4E5969"/>
<path d="M9.625 4.09375C9.38395 4.09375 9.14832 4.16523 8.9479 4.29915C8.74748 4.43306 8.59127 4.62341 8.49902 4.8461C8.40678 5.0688 8.38264 5.31385 8.42967 5.55027C8.47669 5.78668 8.59277 6.00384 8.76321 6.17429C8.93366 6.34473 9.15082 6.46081 9.38723 6.50783C9.62365 6.55486 9.8687 6.53072 10.0914 6.43848C10.3141 6.34623 10.5044 6.19002 10.6384 5.9896C10.7723 5.78918 10.8438 5.55355 10.8438 5.3125C10.8438 4.98927 10.7153 4.67927 10.4868 4.45071C10.2582 4.22215 9.94823 4.09375 9.625 4.09375Z" fill="#4E5969"/>
</svg>
