<svg width="24" height="20" viewBox="0 0 24 20" fill="none" xmlns="http://www.w3.org/2000/svg">
<path d="M12.0007 1.07992V8.25004L12.0013 8.83917L20.683 8.83805L18.6735 6.82701C18.3629 6.51631 18.3347 6.0302 18.589 5.68769L18.6737 5.58957C18.9844 5.27898 19.4705 5.25082 19.813 5.50505L19.9111 5.58978L23.4072 9.08704C23.7175 9.39745 23.7459 9.88302 23.4923 10.2255L23.4078 10.3237L19.9117 13.8277C19.5704 14.1698 19.0164 14.1704 18.6743 13.8291C18.3633 13.5188 18.3345 13.0327 18.5883 12.6899L18.6729 12.5917L20.6713 10.588L12.0013 10.5892L12.0007 18.4584C12.0007 19.0025 11.5093 19.4147 10.9735 19.3201L1.0568 17.5686C0.638729 17.4947 0.333984 17.1314 0.333984 16.7069V2.7084C0.333984 2.27987 0.644334 1.9144 1.06719 1.84496L10.9839 0.216487C11.5166 0.129007 12.0007 0.540071 12.0007 1.07992ZM7.91983 9.41673C7.27411 9.41673 6.75065 9.94019 6.75065 10.5859C6.75065 11.2316 7.27411 11.7551 7.91983 11.7551C8.56554 11.7551 9.089 11.2316 9.089 10.5859C9.089 9.94019 8.56554 9.41673 7.91983 9.41673ZM13.1673 17.5849L14.06 17.5851L14.1789 17.5771C14.6064 17.519 14.9357 17.1521 14.935 16.7086L14.9267 11.7501H13.1673V17.5849ZM13.1697 7.66673L13.1673 6.17962V1.83339L14.0368 1.8334C14.4793 1.8334 14.8451 2.16183 14.9036 2.58836L14.9118 2.70695L14.9197 7.66673H13.1697Z" fill="#4E5969"/>
</svg>
