<svg width="197" height="59" viewBox="0 0 197 59" fill="none" xmlns="http://www.w3.org/2000/svg">
<g clip-path="url(#clip0_466_110881)">
<path d="M42.8952 9.07522C44.4876 10.6547 44.4876 13.2061 42.8952 14.7856L34.2545 23.3558C32.662 24.9353 30.0896 24.9353 28.4971 23.3558L19.8564 14.7856C18.264 13.2061 18.264 10.6547 19.8564 9.07522C21.4489 7.49576 24.0213 7.49576 25.6138 9.07522L28.4971 11.9351C30.0896 13.5146 32.662 13.5146 34.2545 11.9351L37.1378 9.07522C38.7303 7.49576 41.3027 7.49576 42.8952 9.07522Z" fill="#3491FA"/>
<path opacity="0.4" d="M31.3794 8.22444C33.6692 8.22444 35.5254 6.38334 35.5254 4.11222C35.5254 1.8411 33.6692 0 31.3794 0C29.0896 0 27.2334 1.8411 27.2334 4.11222C27.2334 6.38334 29.0896 8.22444 31.3794 8.22444Z" fill="#3491FA"/>
<path d="M42.8952 49.8695C44.4876 48.29 44.4876 45.7386 42.8952 44.1591L34.2545 35.5889C32.662 34.0094 30.0896 34.0094 28.4971 35.5889L19.8564 44.1591C18.264 45.7386 18.264 48.29 19.8564 49.8695C21.4489 51.449 24.0213 51.449 25.6138 49.8695L28.4971 47.0097C30.0896 45.4302 32.662 45.4302 34.2545 47.0097L37.1378 49.8695C38.7303 51.449 41.3027 51.449 42.8952 49.8695Z" fill="#00B42A"/>
<path opacity="0.4" d="M31.3794 58.9354C33.6692 58.9354 35.5254 57.0943 35.5254 54.8232C35.5254 52.552 33.6692 50.7109 31.3794 50.7109C29.0896 50.7109 27.2334 52.552 27.2334 54.8232C27.2334 57.0943 29.0896 58.9354 31.3794 58.9354Z" fill="#00B42A"/>
<path d="M9.15039 18.0479C10.7428 16.4684 13.3153 16.4684 14.9077 18.0479L23.5484 26.6181C25.1409 28.1976 25.1409 30.749 23.5484 32.3285L14.9077 40.8987C13.3153 42.4782 10.7428 42.4782 9.15039 40.8987C7.55794 39.3193 7.55794 36.7678 9.15039 35.1884L12.0338 32.3285C13.6262 30.749 13.6262 28.1976 12.0338 26.6181L9.15039 23.7583C7.55794 22.1788 7.55794 19.618 9.15039 18.0479Z" fill="#F53F3F"/>
<g opacity="0.5">
<path opacity="0.4" d="M4.14603 33.5804C6.43581 33.5804 8.29205 31.7393 8.29205 29.4682C8.29205 27.1971 6.43581 25.356 4.14603 25.356C1.85624 25.356 0 27.1971 0 29.4682C0 31.7393 1.85624 33.5804 4.14603 33.5804Z" fill="#F53F3F"/>
</g>
</g>
<path d="M190.093 31.7732C188.201 31.7732 186.571 31.4199 185.204 30.7132C183.836 30.0066 182.776 29.0036 182.024 27.7044C181.294 26.4051 180.93 24.8665 180.93 23.0885C180.93 21.3561 181.283 19.8403 181.99 18.541C182.719 17.2417 183.711 16.2274 184.964 15.498C186.241 14.7457 187.688 14.3696 189.307 14.3696C190.492 14.3696 191.552 14.5634 192.486 14.9509C193.444 15.3384 194.253 15.8969 194.914 16.6263C195.598 17.3557 196.111 18.2447 196.453 19.2932C196.817 20.319 197 21.4815 197 22.7808C197 23.1911 196.852 23.5102 196.555 23.7381C196.282 23.9433 195.883 24.0459 195.359 24.0459H184.383V21.5841H193.991L193.444 22.0969C193.444 21.0484 193.284 20.1708 192.965 19.4642C192.669 18.7576 192.224 18.2219 191.632 17.8572C191.062 17.4697 190.344 17.2759 189.478 17.2759C188.52 17.2759 187.7 17.5039 187.016 17.9598C186.355 18.3928 185.842 19.0197 185.477 19.8403C185.135 20.6381 184.964 21.5955 184.964 22.7124V22.9517C184.964 24.8209 185.397 26.2227 186.264 27.1573C187.153 28.0691 188.452 28.525 190.161 28.525C190.754 28.525 191.415 28.4566 192.145 28.3198C192.897 28.1603 193.603 27.8981 194.264 27.5334C194.743 27.2599 195.165 27.1459 195.53 27.1915C195.894 27.2143 196.179 27.3397 196.384 27.5676C196.612 27.7955 196.749 28.0805 196.795 28.4224C196.84 28.7415 196.772 29.072 196.589 29.4139C196.43 29.7559 196.145 30.0522 195.735 30.3029C194.937 30.8044 194.014 31.1805 192.965 31.4313C191.939 31.6592 190.982 31.7732 190.093 31.7732Z" fill="#1D2129"/>
<path d="M176.556 31.7734C175.075 31.7734 173.832 31.5227 172.829 31.0212C171.849 30.5197 171.12 29.7903 170.641 28.8329C170.162 27.8528 169.923 26.6447 169.923 25.2086V17.9258H168.145C167.598 17.9258 167.176 17.789 166.88 17.5155C166.584 17.2192 166.436 16.8203 166.436 16.3188C166.436 15.7945 166.584 15.3956 166.88 15.1221C167.176 14.8486 167.598 14.7118 168.145 14.7118H169.923V11.6004C169.923 10.8937 170.105 10.3581 170.47 9.99335C170.858 9.62864 171.393 9.44629 172.077 9.44629C172.761 9.44629 173.285 9.62864 173.65 9.99335C174.015 10.3581 174.197 10.8937 174.197 11.6004V14.7118H177.821C178.368 14.7118 178.79 14.8486 179.086 15.1221C179.383 15.3956 179.531 15.7945 179.531 16.3188C179.531 16.8203 179.383 17.2192 179.086 17.5155C178.79 17.789 178.368 17.9258 177.821 17.9258H174.197V24.9693C174.197 26.0634 174.436 26.884 174.915 27.4311C175.394 27.9782 176.169 28.2517 177.24 28.2517C177.628 28.2517 177.97 28.2175 178.266 28.1491C178.562 28.0807 178.824 28.0351 179.052 28.0123C179.326 27.9895 179.554 28.0807 179.736 28.2859C179.918 28.4682 180.01 28.8557 180.01 29.4484C180.01 29.9043 179.93 30.3146 179.77 30.6793C179.634 31.0212 179.371 31.2605 178.984 31.3973C178.688 31.4885 178.3 31.5683 177.821 31.6367C177.343 31.7278 176.921 31.7734 176.556 31.7734Z" fill="#1D2129"/>
<path d="M162.303 31.6708C161.619 31.6708 161.095 31.4657 160.73 31.0554C160.365 30.6451 160.183 30.0752 160.183 29.3458V16.7974C160.183 16.0452 160.365 15.4754 160.73 15.0879C161.095 14.6776 161.619 14.4724 162.303 14.4724C162.986 14.4724 163.511 14.6776 163.875 15.0879C164.263 15.4754 164.457 16.0452 164.457 16.7974V29.3458C164.457 30.0752 164.274 30.6451 163.91 31.0554C163.545 31.4657 163.009 31.6708 162.303 31.6708ZM162.303 11.2926C161.505 11.2926 160.878 11.0988 160.422 10.7113C159.989 10.301 159.772 9.74257 159.772 9.03594C159.772 8.30652 159.989 7.74806 160.422 7.36055C160.878 6.97305 161.505 6.7793 162.303 6.7793C163.123 6.7793 163.75 6.97305 164.183 7.36055C164.616 7.74806 164.833 8.30652 164.833 9.03594C164.833 9.74257 164.616 10.301 164.183 10.7113C163.75 11.0988 163.123 11.2926 162.303 11.2926Z" fill="#1D2129"/>
<path d="M154.974 31.7733C153.082 31.7733 151.657 31.2376 150.7 30.1663C149.742 29.0721 149.264 27.4765 149.264 25.3794V9.20681C149.264 8.50018 149.446 7.96451 149.811 7.5998C150.175 7.23509 150.7 7.05273 151.384 7.05273C152.067 7.05273 152.592 7.23509 152.956 7.5998C153.344 7.96451 153.538 8.50018 153.538 9.20681V25.1743C153.538 26.2228 153.754 26.9979 154.187 27.4993C154.643 28.0008 155.281 28.2515 156.102 28.2515C156.284 28.2515 156.455 28.2515 156.615 28.2515C156.774 28.2288 156.934 28.206 157.094 28.1832C157.413 28.1376 157.629 28.2288 157.743 28.4567C157.857 28.6618 157.914 29.0949 157.914 29.756C157.914 30.3258 157.8 30.7703 157.572 31.0895C157.344 31.4086 156.968 31.6023 156.444 31.6707C156.216 31.6935 155.977 31.7163 155.726 31.7391C155.475 31.7619 155.224 31.7733 154.974 31.7733Z" fill="#1D2129"/>
<path d="M131.597 31.4313C130.845 31.4313 130.264 31.2375 129.854 30.85C129.466 30.4397 129.272 29.8585 129.272 29.1062V9.6512C129.272 8.89899 129.466 8.32913 129.854 7.94162C130.264 7.53132 130.845 7.32617 131.597 7.32617H143.804C144.374 7.32617 144.807 7.47434 145.103 7.77066C145.422 8.06699 145.582 8.48869 145.582 9.03575C145.582 9.60561 145.422 10.0501 145.103 10.3692C144.807 10.6656 144.374 10.8137 143.804 10.8137H133.478V17.4469H143.052C143.644 17.4469 144.089 17.5951 144.385 17.8914C144.681 18.1877 144.83 18.6208 144.83 19.1907C144.83 19.7605 144.681 20.1936 144.385 20.49C144.089 20.7863 143.644 20.9344 143.052 20.9344H133.478V27.9437H143.804C144.374 27.9437 144.807 28.0919 145.103 28.3882C145.422 28.6845 145.582 29.1176 145.582 29.6875C145.582 30.2574 145.422 30.6905 145.103 30.9868C144.807 31.2831 144.374 31.4313 143.804 31.4313H131.597Z" fill="#1D2129"/>
<path d="M123.399 31.7734C121.917 31.7734 120.675 31.5227 119.672 31.0212C118.692 30.5197 117.963 29.7903 117.484 28.8329C117.005 27.8528 116.766 26.6447 116.766 25.2086V17.9258H114.988C114.441 17.9258 114.019 17.789 113.723 17.5155C113.426 17.2192 113.278 16.8203 113.278 16.3188C113.278 15.7945 113.426 15.3956 113.723 15.1221C114.019 14.8486 114.441 14.7118 114.988 14.7118H116.766V11.6004C116.766 10.8937 116.948 10.3581 117.313 9.99335C117.7 9.62864 118.236 9.44629 118.92 9.44629C119.604 9.44629 120.128 9.62864 120.493 9.99335C120.857 10.3581 121.04 10.8937 121.04 11.6004V14.7118H124.664C125.211 14.7118 125.633 14.8486 125.929 15.1221C126.226 15.3956 126.374 15.7945 126.374 16.3188C126.374 16.8203 126.226 17.2192 125.929 17.5155C125.633 17.789 125.211 17.9258 124.664 17.9258H121.04V24.9693C121.04 26.0634 121.279 26.884 121.758 27.4311C122.237 27.9782 123.012 28.2517 124.083 28.2517C124.47 28.2517 124.812 28.2175 125.109 28.1491C125.405 28.0807 125.667 28.0351 125.895 28.0123C126.169 27.9895 126.397 28.0807 126.579 28.2859C126.761 28.4682 126.852 28.8557 126.852 29.4484C126.852 29.9043 126.773 30.3146 126.613 30.6793C126.476 31.0212 126.214 31.2605 125.827 31.3973C125.53 31.4885 125.143 31.5683 124.664 31.6367C124.185 31.7278 123.764 31.7734 123.399 31.7734Z" fill="#1D2129"/>
<path d="M105.333 31.7732C104.352 31.7732 103.315 31.6706 102.221 31.4654C101.127 31.2603 100.147 30.907 99.2806 30.4055C98.9159 30.1776 98.6538 29.9154 98.4942 29.6191C98.3574 29.3 98.3004 28.9923 98.3232 28.6959C98.3688 28.3768 98.4828 28.1033 98.6652 27.8753C98.8703 27.6474 99.1211 27.4992 99.4174 27.4308C99.7365 27.3624 100.078 27.4194 100.443 27.6018C101.355 28.0349 102.21 28.3426 103.007 28.525C103.805 28.6845 104.592 28.7643 105.367 28.7643C106.461 28.7643 107.27 28.582 107.794 28.2172C108.341 27.8297 108.615 27.3283 108.615 26.7128C108.615 26.1885 108.433 25.7896 108.068 25.5161C107.726 25.2198 107.202 25.0032 106.495 24.8665L103.076 24.2168C101.663 23.9433 100.58 23.4304 99.8277 22.6782C99.0983 21.9032 98.7335 20.9116 98.7335 19.7035C98.7335 18.6094 99.0299 17.6634 99.6225 16.8656C100.238 16.0678 101.081 15.4524 102.153 15.0193C103.224 14.5862 104.455 14.3696 105.845 14.3696C106.848 14.3696 107.783 14.4836 108.649 14.7115C109.538 14.9167 110.393 15.2472 111.213 15.7031C111.555 15.8855 111.783 16.1248 111.897 16.4211C112.034 16.7175 112.068 17.0252 112 17.3443C111.932 17.6406 111.795 17.9142 111.59 18.1649C111.384 18.3928 111.122 18.541 110.803 18.6094C110.507 18.655 110.165 18.5866 109.777 18.4042C109.071 18.0395 108.387 17.7774 107.726 17.6178C107.088 17.4583 106.472 17.3785 105.88 17.3785C104.763 17.3785 103.931 17.5722 103.384 17.9598C102.859 18.3473 102.597 18.8601 102.597 19.4984C102.597 19.9771 102.757 20.376 103.076 20.6951C103.395 21.0142 103.885 21.2307 104.546 21.3447L107.965 21.9944C109.447 22.2679 110.564 22.7694 111.316 23.4988C112.091 24.2282 112.479 25.2084 112.479 26.4393C112.479 28.1033 111.829 29.4139 110.53 30.3713C109.23 31.3059 107.498 31.7732 105.333 31.7732Z" fill="#1D2129"/>
<path d="M87.1368 31.7732C85.4044 31.7732 83.9 31.4199 82.6235 30.7132C81.347 30.0066 80.3554 29.0036 79.6488 27.7044C78.9422 26.3823 78.5889 24.8323 78.5889 23.0543C78.5889 21.7094 78.7826 20.5127 79.1701 19.4642C79.5804 18.3928 80.1617 17.4811 80.9139 16.7289C81.6661 15.9538 82.5665 15.3726 83.615 14.9851C84.6636 14.5748 85.8375 14.3696 87.1368 14.3696C88.8692 14.3696 90.3736 14.7229 91.6501 15.4296C92.9266 16.1362 93.9181 17.1392 94.6247 18.4384C95.3314 19.7377 95.6847 21.2763 95.6847 23.0543C95.6847 24.3992 95.4795 25.6073 95.0692 26.6786C94.6817 27.75 94.1119 28.6731 93.3597 29.4481C92.6074 30.2004 91.7071 30.7816 90.6585 31.1919C89.61 31.5794 88.4361 31.7732 87.1368 31.7732ZM87.1368 28.525C87.9802 28.525 88.721 28.3198 89.3592 27.9095C89.9975 27.4992 90.4876 26.8952 90.8295 26.0974C91.1942 25.2768 91.3765 24.2624 91.3765 23.0543C91.3765 21.2308 90.989 19.8745 90.214 18.9855C89.439 18.0737 88.4133 17.6178 87.1368 17.6178C86.2934 17.6178 85.5526 17.823 84.9143 18.2333C84.2761 18.6208 83.7746 19.2248 83.4099 20.0454C83.068 20.8432 82.897 21.8462 82.897 23.0543C82.897 24.8551 83.2845 26.2227 84.0595 27.1573C84.8345 28.0691 85.8603 28.525 87.1368 28.525Z" fill="#1D2129"/>
<path d="M60.6736 31.7048C59.967 31.7048 59.4199 31.5111 59.0324 31.1235C58.6677 30.7132 58.4854 30.1548 58.4854 29.4482V9.54863C58.4854 8.81921 58.6791 8.27214 59.0666 7.90743C59.4541 7.51992 60.0012 7.32617 60.7078 7.32617H68.948C71.5921 7.32617 73.6322 7.98721 75.0683 9.30929C76.5043 10.6314 77.2224 12.4777 77.2224 14.8483C77.2224 17.219 76.5043 19.0767 75.0683 20.4216C73.6322 21.7436 71.5921 22.4047 68.948 22.4047H62.8619V29.4482C62.8619 30.1548 62.6795 30.7132 62.3148 31.1235C61.9501 31.5111 61.403 31.7048 60.6736 31.7048ZM62.8619 18.9513H68.2642C69.8142 18.9513 70.9881 18.6094 71.7859 17.9256C72.5837 17.219 72.9826 16.1932 72.9826 14.8483C72.9826 13.5035 72.5837 12.4891 71.7859 11.8053C70.9881 11.1214 69.8142 10.7795 68.2642 10.7795H62.8619V18.9513Z" fill="#1D2129"/>
<path d="M193.078 52.1562C192.385 52.1562 191.786 51.9777 191.283 51.6208C190.789 51.2639 190.459 50.7863 190.291 50.1879L190.464 50.0147V51.4634C190.464 51.6733 190.406 51.836 190.291 51.9515C190.186 52.067 190.033 52.1247 189.834 52.1247C189.624 52.1247 189.467 52.067 189.362 51.9515C189.257 51.836 189.204 51.6733 189.204 51.4634V41.4488C189.204 41.2389 189.257 41.0814 189.362 40.9764C189.467 40.861 189.624 40.8032 189.834 40.8032C190.033 40.8032 190.191 40.861 190.306 40.9764C190.422 41.0814 190.48 41.2389 190.48 41.4488V46.1412H190.291C190.469 45.5533 190.805 45.0862 191.298 44.7398C191.792 44.3933 192.385 44.2201 193.078 44.2201C193.77 44.2201 194.369 44.3828 194.873 44.7083C195.377 45.0232 195.765 45.4798 196.038 46.0782C196.321 46.666 196.463 47.3694 196.463 48.1882C196.463 48.9965 196.321 49.6998 196.038 50.2981C195.765 50.886 195.371 51.3426 194.857 51.6681C194.353 51.9935 193.76 52.1562 193.078 52.1562ZM192.81 51.1327C193.293 51.1327 193.707 51.0172 194.054 50.7863C194.411 50.5553 194.684 50.2194 194.873 49.7785C195.072 49.3376 195.172 48.8075 195.172 48.1882C195.172 47.2329 194.957 46.5033 194.526 45.9995C194.106 45.4956 193.534 45.2436 192.81 45.2436C192.338 45.2436 191.923 45.3591 191.566 45.5901C191.209 45.8105 190.931 46.1412 190.731 46.5821C190.543 47.0125 190.448 47.5478 190.448 48.1882C190.448 49.1329 190.663 49.8625 191.094 50.3769C191.524 50.8808 192.096 51.1327 192.81 51.1327Z" fill="#4E5969"/>
<path d="M183.086 52.156C182.466 52.156 181.952 52.0458 181.543 51.8254C181.144 51.5944 180.839 51.2533 180.629 50.8019C180.43 50.3505 180.33 49.7889 180.33 49.117V44.8971C180.33 44.6766 180.383 44.5139 180.488 44.4089C180.603 44.304 180.76 44.2515 180.96 44.2515C181.17 44.2515 181.327 44.304 181.432 44.4089C181.548 44.5139 181.606 44.6766 181.606 44.8971V49.1013C181.606 49.7731 181.742 50.277 182.015 50.6129C182.298 50.9383 182.739 51.101 183.338 51.101C183.988 51.101 184.519 50.8806 184.928 50.4397C185.337 49.9988 185.542 49.4214 185.542 48.7076V44.8971C185.542 44.6766 185.595 44.5139 185.7 44.4089C185.815 44.304 185.978 44.2515 186.188 44.2515C186.387 44.2515 186.539 44.304 186.644 44.4089C186.76 44.5139 186.817 44.6766 186.817 44.8971V51.4632C186.817 51.9041 186.613 52.1245 186.203 52.1245C186.004 52.1245 185.846 52.0668 185.731 51.9513C185.626 51.8359 185.574 51.6731 185.574 51.4632V50.0303L185.778 50.2507C185.568 50.8701 185.222 51.3425 184.739 51.6679C184.267 51.9933 183.715 52.156 183.086 52.156Z" fill="#4E5969"/>
<path d="M169.217 52.1247C169.007 52.1247 168.844 52.067 168.729 51.9515C168.624 51.8255 168.571 51.6576 168.571 51.4476V41.4803C168.571 41.2599 168.624 41.0919 168.729 40.9764C168.844 40.861 169.007 40.8032 169.217 40.8032C169.427 40.8032 169.584 40.861 169.689 40.9764C169.805 41.0919 169.862 41.2599 169.862 41.4803V45.8262H176.523V41.4803C176.523 41.2599 176.576 41.0919 176.681 40.9764C176.796 40.861 176.959 40.8032 177.169 40.8032C177.379 40.8032 177.536 40.861 177.641 40.9764C177.757 41.0919 177.814 41.2599 177.814 41.4803V51.4476C177.814 51.6576 177.757 51.8255 177.641 51.9515C177.536 52.067 177.379 52.1247 177.169 52.1247C176.959 52.1247 176.796 52.067 176.681 51.9515C176.576 51.8255 176.523 51.6576 176.523 51.4476V46.9442H169.862V51.4476C169.862 51.6576 169.81 51.8255 169.705 51.9515C169.6 52.067 169.437 52.1247 169.217 52.1247Z" fill="#4E5969"/>
<path d="M159.407 52.1563C158.599 52.1563 157.901 51.9988 157.313 51.6839C156.736 51.3585 156.284 50.9018 155.959 50.314C155.644 49.7261 155.486 49.0228 155.486 48.204C155.486 47.4062 155.644 46.7134 155.959 46.1255C156.274 45.5271 156.704 45.06 157.25 44.7241C157.806 44.3882 158.447 44.2202 159.171 44.2202C159.685 44.2202 160.147 44.3094 160.557 44.4879C160.966 44.6559 161.312 44.9025 161.596 45.228C161.89 45.5534 162.11 45.947 162.257 46.4089C162.415 46.8708 162.493 47.3904 162.493 47.9678C162.493 48.1358 162.446 48.2617 162.352 48.3457C162.257 48.4192 162.121 48.4559 161.942 48.4559H156.463V47.6214H161.643L161.391 47.8261C161.391 47.2592 161.307 46.7816 161.139 46.3932C160.971 45.9943 160.725 45.6899 160.399 45.4799C160.084 45.27 159.685 45.165 159.202 45.165C158.667 45.165 158.21 45.291 157.833 45.5429C157.465 45.7843 157.187 46.1255 156.998 46.5664C156.809 46.9968 156.715 47.5007 156.715 48.078V48.1725C156.715 49.1383 156.945 49.8731 157.407 50.377C157.88 50.8808 158.546 51.1328 159.407 51.1328C159.764 51.1328 160.116 51.0855 160.462 50.9911C160.819 50.8966 161.165 50.7391 161.501 50.5187C161.648 50.4242 161.78 50.3822 161.895 50.3927C162.021 50.3927 162.121 50.4294 162.194 50.5029C162.268 50.5659 162.315 50.6499 162.336 50.7549C162.367 50.8493 162.357 50.9543 162.304 51.0698C162.262 51.1853 162.173 51.285 162.037 51.369C161.69 51.6209 161.281 51.8151 160.809 51.9516C160.336 52.088 159.869 52.1563 159.407 52.1563Z" fill="#4E5969"/>
<path d="M152.068 52.1563C151.301 52.1563 150.64 51.9883 150.084 51.6524C149.527 51.3165 149.097 50.8493 148.792 50.251C148.499 49.6421 148.352 48.9388 148.352 48.141C148.352 47.5322 148.436 46.9863 148.603 46.5034C148.771 46.0205 149.018 45.6111 149.344 45.2752C149.669 44.9288 150.057 44.6664 150.509 44.4879C150.971 44.3094 151.49 44.2202 152.068 44.2202C152.446 44.2202 152.839 44.278 153.249 44.3934C153.658 44.5089 154.031 44.7083 154.367 44.9918C154.472 45.0653 154.54 45.1545 154.571 45.2595C154.603 45.3644 154.603 45.4694 154.571 45.5744C154.54 45.6689 154.487 45.7528 154.414 45.8263C154.34 45.8893 154.246 45.926 154.13 45.9365C154.025 45.947 153.915 45.9103 153.8 45.8263C153.527 45.6164 153.249 45.4694 152.965 45.3854C152.682 45.3015 152.409 45.2595 152.146 45.2595C151.737 45.2595 151.38 45.3277 151.076 45.4642C150.771 45.5901 150.514 45.7738 150.304 46.0153C150.094 46.2567 149.931 46.5559 149.816 46.9128C149.711 47.2697 149.658 47.6844 149.658 48.1568C149.658 49.07 149.874 49.7944 150.304 50.3297C150.734 50.8546 151.349 51.117 152.146 51.117C152.409 51.117 152.677 51.075 152.949 50.9911C153.233 50.9071 153.516 50.7601 153.8 50.5502C153.915 50.4662 154.025 50.4294 154.13 50.4399C154.235 50.4504 154.325 50.4924 154.398 50.5659C154.472 50.6289 154.519 50.7129 154.54 50.8179C154.571 50.9228 154.571 51.0278 154.54 51.1328C154.508 51.2272 154.44 51.3112 154.335 51.3847C153.999 51.6576 153.632 51.8571 153.233 51.9831C152.834 52.0985 152.446 52.1563 152.068 52.1563Z" fill="#4E5969"/>
<path d="M145.794 52.093C145.584 52.093 145.426 52.0352 145.321 51.9198C145.216 51.7938 145.164 51.6206 145.164 51.4001V44.96C145.164 44.7395 145.216 44.5716 145.321 44.4561C145.426 44.3406 145.584 44.2829 145.794 44.2829C145.993 44.2829 146.15 44.3406 146.266 44.4561C146.381 44.5716 146.439 44.7395 146.439 44.96V51.4001C146.439 51.6206 146.381 51.7938 146.266 51.9198C146.161 52.0352 146.003 52.093 145.794 52.093ZM145.794 42.5193C145.531 42.5193 145.326 42.4511 145.179 42.3146C145.032 42.1677 144.959 41.9735 144.959 41.732C144.959 41.4801 145.032 41.2911 145.179 41.1651C145.326 41.0287 145.531 40.9604 145.794 40.9604C146.066 40.9604 146.271 41.0287 146.408 41.1651C146.555 41.2911 146.628 41.4801 146.628 41.732C146.628 41.9735 146.555 42.1677 146.408 42.3146C146.271 42.4511 146.066 42.5193 145.794 42.5193Z" fill="#4E5969"/>
<path d="M139.91 52.1245C139.731 52.1245 139.574 52.0773 139.437 51.9828C139.301 51.8778 139.186 51.7204 139.091 51.5104L136.367 45.149C136.293 44.9915 136.267 44.8446 136.288 44.7081C136.309 44.5716 136.372 44.4614 136.477 44.3774C136.582 44.2935 136.729 44.2515 136.918 44.2515C137.086 44.2515 137.217 44.2882 137.312 44.3617C137.406 44.4352 137.49 44.5664 137.564 44.7553L140.146 51.0695H139.721L142.351 44.7553C142.424 44.5664 142.508 44.4352 142.602 44.3617C142.697 44.2882 142.833 44.2515 143.012 44.2515C143.18 44.2515 143.306 44.2935 143.39 44.3774C143.484 44.4614 143.537 44.5716 143.547 44.7081C143.568 44.8341 143.547 44.9758 143.484 45.1332L140.729 51.5104C140.655 51.7204 140.545 51.8778 140.398 51.9828C140.262 52.0773 140.099 52.1245 139.91 52.1245Z" fill="#4E5969"/>
<path d="M131.586 52.1242C131.376 52.1242 131.213 52.0665 131.098 51.951C130.993 51.8355 130.94 51.6728 130.94 51.4629V44.8967C130.94 44.6868 130.993 44.5293 131.098 44.4243C131.203 44.3089 131.355 44.2511 131.555 44.2511C131.754 44.2511 131.906 44.3089 132.011 44.4243C132.127 44.5293 132.184 44.6868 132.184 44.8967V46.1722H132.027C132.195 45.5528 132.515 45.0752 132.987 44.7393C133.46 44.4033 134.042 44.2249 134.735 44.2039C134.893 44.1934 135.019 44.2301 135.113 44.3141C135.208 44.3876 135.26 44.5188 135.271 44.7078C135.281 44.8862 135.239 45.0279 135.145 45.1329C135.05 45.2379 134.903 45.3009 134.704 45.3219L134.452 45.3534C133.738 45.4164 133.187 45.6473 132.798 46.0462C132.421 46.4346 132.232 46.97 132.232 47.6523V51.4629C132.232 51.6728 132.174 51.8355 132.058 51.951C131.953 52.0665 131.796 52.1242 131.586 52.1242Z" fill="#4E5969"/>
<path d="M126.008 52.1563C125.199 52.1563 124.501 51.9988 123.913 51.6839C123.336 51.3585 122.885 50.9018 122.559 50.314C122.244 49.7261 122.087 49.0228 122.087 48.204C122.087 47.4062 122.244 46.7134 122.559 46.1255C122.874 45.5271 123.305 45.06 123.85 44.7241C124.407 44.3882 125.047 44.2202 125.772 44.2202C126.286 44.2202 126.748 44.3094 127.157 44.4879C127.567 44.6559 127.913 44.9025 128.196 45.228C128.49 45.5534 128.711 45.947 128.858 46.4089C129.015 46.8708 129.094 47.3904 129.094 47.9678C129.094 48.1358 129.047 48.2617 128.952 48.3457C128.858 48.4192 128.721 48.4559 128.543 48.4559H123.063V47.6214H128.244L127.992 47.8261C127.992 47.2592 127.908 46.7816 127.74 46.3932C127.572 45.9943 127.325 45.6899 127 45.4799C126.685 45.27 126.286 45.165 125.803 45.165C125.268 45.165 124.811 45.291 124.433 45.5429C124.066 45.7843 123.787 46.1255 123.599 46.5664C123.41 46.9968 123.315 47.5007 123.315 48.078V48.1725C123.315 49.1383 123.546 49.8731 124.008 50.377C124.48 50.8808 125.147 51.1328 126.008 51.1328C126.365 51.1328 126.716 51.0855 127.063 50.9911C127.42 50.8966 127.766 50.7391 128.102 50.5187C128.249 50.4242 128.38 50.3822 128.496 50.3927C128.622 50.3927 128.721 50.4294 128.795 50.5029C128.868 50.5659 128.915 50.6499 128.936 50.7549C128.968 50.8493 128.957 50.9543 128.905 51.0698C128.863 51.1853 128.774 51.285 128.637 51.369C128.291 51.6209 127.881 51.8151 127.409 51.9516C126.937 52.088 126.47 52.1563 126.008 52.1563Z" fill="#4E5969"/>
<path d="M116.635 52.1559C116.142 52.1559 115.659 52.114 115.187 52.03C114.714 51.946 114.273 51.8253 113.864 51.6678C113.465 51.5104 113.103 51.3109 112.777 51.0695C112.651 50.975 112.562 50.87 112.51 50.7545C112.468 50.6286 112.457 50.5079 112.478 50.3924C112.51 50.2664 112.562 50.1614 112.636 50.0775C112.72 49.9935 112.819 49.9462 112.935 49.9357C113.05 49.9252 113.176 49.962 113.313 50.046C113.785 50.3819 114.289 50.6286 114.824 50.786C115.36 50.933 115.963 51.0065 116.635 51.0065C117.58 51.0065 118.278 50.8333 118.729 50.4869C119.191 50.1299 119.422 49.6628 119.422 49.0854C119.422 48.6131 119.254 48.2457 118.918 47.9832C118.593 47.7103 118.042 47.4951 117.265 47.3376L115.628 47.007C114.641 46.797 113.901 46.4558 113.407 45.9835C112.924 45.5006 112.683 44.8602 112.683 44.0624C112.683 43.569 112.783 43.1229 112.982 42.724C113.182 42.3146 113.46 41.9682 113.817 41.6848C114.174 41.3908 114.599 41.1651 115.092 41.0077C115.586 40.8502 116.131 40.7715 116.73 40.7715C117.391 40.7715 118.005 40.866 118.572 41.0549C119.149 41.2334 119.669 41.5063 120.131 41.8737C120.246 41.9682 120.325 42.0784 120.367 42.2044C120.409 42.3199 120.414 42.4353 120.383 42.5508C120.351 42.6558 120.294 42.745 120.21 42.8185C120.136 42.892 120.036 42.934 119.91 42.9445C119.795 42.9549 119.664 42.913 119.517 42.8185C119.097 42.5036 118.661 42.2779 118.21 42.1414C117.758 41.9944 117.26 41.921 116.714 41.921C116.158 41.921 115.675 42.0049 115.265 42.1729C114.866 42.3409 114.552 42.5875 114.321 42.913C114.1 43.2279 113.99 43.5953 113.99 44.0152C113.99 44.5191 114.142 44.918 114.447 45.2119C114.761 45.5058 115.271 45.721 115.974 45.8575L117.612 46.2039C118.672 46.4244 119.454 46.7603 119.958 47.2117C120.472 47.6526 120.729 48.2562 120.729 49.0225C120.729 49.4844 120.635 49.9095 120.446 50.2979C120.257 50.6863 119.984 51.0222 119.627 51.3057C119.27 51.5786 118.84 51.7885 118.336 51.9355C117.832 52.0825 117.265 52.1559 116.635 52.1559Z" fill="#4E5969"/>
<path d="M102.546 52.1562C101.863 52.1562 101.265 51.9935 100.751 51.6681C100.247 51.3426 99.853 50.886 99.5696 50.2981C99.2966 49.6998 99.1602 48.9965 99.1602 48.1882C99.1602 47.3694 99.2966 46.666 99.5696 46.0782C99.853 45.4798 100.247 45.0232 100.751 44.7083C101.265 44.3828 101.863 44.2201 102.546 44.2201C103.238 44.2201 103.832 44.3933 104.325 44.7398C104.818 45.0862 105.149 45.5533 105.317 46.1412H105.144V41.4488C105.144 41.2389 105.196 41.0814 105.301 40.9764C105.417 40.861 105.579 40.8032 105.789 40.8032C105.989 40.8032 106.141 40.861 106.246 40.9764C106.361 41.0814 106.419 41.2389 106.419 41.4488V51.4634C106.419 51.6733 106.367 51.836 106.262 51.9515C106.157 52.067 105.999 52.1247 105.789 52.1247C105.59 52.1247 105.432 52.067 105.317 51.9515C105.212 51.836 105.159 51.6733 105.159 51.4634V49.9675L105.333 50.1879C105.165 50.7863 104.829 51.2639 104.325 51.6208C103.832 51.9777 103.238 52.1562 102.546 52.1562ZM102.813 51.1327C103.286 51.1327 103.7 51.0172 104.057 50.7863C104.414 50.5553 104.687 50.2194 104.876 49.7785C105.075 49.3376 105.175 48.8075 105.175 48.1882C105.175 47.2329 104.96 46.5033 104.53 45.9995C104.11 45.4956 103.538 45.2436 102.813 45.2436C102.33 45.2436 101.91 45.3591 101.554 45.5901C101.207 45.8105 100.934 46.1412 100.735 46.5821C100.546 47.0125 100.451 47.5478 100.451 48.1882C100.451 49.1329 100.667 49.8625 101.097 50.3769C101.527 50.8808 102.099 51.1327 102.813 51.1327Z" fill="#4E5969"/>
<path d="M94.7001 52.1563C93.8918 52.1563 93.1937 51.9988 92.6058 51.6839C92.0285 51.3585 91.5771 50.9018 91.2517 50.314C90.9368 49.7261 90.7793 49.0228 90.7793 48.204C90.7793 47.4062 90.9368 46.7134 91.2517 46.1255C91.5666 45.5271 91.997 45.06 92.5429 44.7241C93.0992 44.3882 93.7396 44.2202 94.4639 44.2202C94.9783 44.2202 95.4402 44.3094 95.8496 44.4879C96.259 44.6559 96.6054 44.9025 96.8888 45.228C97.1827 45.5534 97.4032 45.947 97.5501 46.4089C97.7076 46.8708 97.7863 47.3904 97.7863 47.9678C97.7863 48.1358 97.7391 48.2617 97.6446 48.3457C97.5501 48.4192 97.4137 48.4559 97.2352 48.4559H91.7556V47.6214H96.936L96.6841 47.8261C96.6841 47.2592 96.6001 46.7816 96.4322 46.3932C96.2642 45.9943 96.0175 45.6899 95.6921 45.4799C95.3772 45.27 94.9783 45.165 94.4954 45.165C93.96 45.165 93.5034 45.291 93.1255 45.5429C92.7581 45.7843 92.4799 46.1255 92.2909 46.5664C92.102 46.9968 92.0075 47.5007 92.0075 48.078V48.1725C92.0075 49.1383 92.2384 49.8731 92.7003 50.377C93.1727 50.8808 93.8393 51.1328 94.7001 51.1328C95.057 51.1328 95.4087 51.0855 95.7551 50.9911C96.112 50.8966 96.4584 50.7391 96.7943 50.5187C96.9413 50.4242 97.0725 50.3822 97.188 50.3927C97.3139 50.3927 97.4137 50.4294 97.4872 50.5029C97.5606 50.5659 97.6079 50.6499 97.6289 50.7549C97.6604 50.8493 97.6499 50.9543 97.5974 51.0698C97.5554 51.1853 97.4662 51.285 97.3297 51.369C96.9833 51.6209 96.5739 51.8151 96.1015 51.9516C95.6291 52.088 95.162 52.1563 94.7001 52.1563Z" fill="#4E5969"/>
<path d="M83.4954 52.1244C83.2959 52.1244 83.1384 52.0667 83.023 51.9512C82.918 51.8357 82.8655 51.673 82.8655 51.4631V45.3535H81.8578C81.6898 45.3535 81.5533 45.3116 81.4484 45.2276C81.3539 45.1331 81.3066 45.0071 81.3066 44.8497C81.3066 44.6922 81.3539 44.5715 81.4484 44.4875C81.5533 44.4035 81.6898 44.3615 81.8578 44.3615H83.2119L82.8655 44.6922V44.0939C82.8655 43.1071 83.1017 42.3513 83.5741 41.8264C84.057 41.3015 84.7655 41.0024 85.6998 40.9289L86.1722 40.8816C86.3297 40.8711 86.4556 40.8974 86.5501 40.9604C86.6446 41.0129 86.7023 41.0863 86.7233 41.1808C86.7548 41.2753 86.7601 41.375 86.7391 41.48C86.7181 41.585 86.6708 41.6742 86.5973 41.7477C86.5344 41.8212 86.4556 41.8632 86.3612 41.8737L85.8888 41.9051C85.2694 41.9471 84.8233 42.1413 84.5503 42.4878C84.2774 42.8237 84.1409 43.3066 84.1409 43.9364V44.5977L83.952 44.3615H88.2349C88.4344 44.3615 88.5866 44.4193 88.6916 44.5347C88.8071 44.6502 88.8648 44.8182 88.8648 45.0386V51.4001C88.8648 51.6205 88.8123 51.7937 88.7073 51.9197C88.6024 52.0352 88.4449 52.0929 88.2349 52.0929C88.025 52.0929 87.8623 52.0352 87.7468 51.9197C87.6418 51.7937 87.5894 51.6205 87.5894 51.4001V45.3535H84.1409V51.4631C84.1409 51.9039 83.9258 52.1244 83.4954 52.1244ZM88.2507 42.5192C87.9883 42.5192 87.7836 42.451 87.6366 42.3145C87.5001 42.1676 87.4319 41.9734 87.4319 41.7319C87.4319 41.48 87.5001 41.291 87.6366 41.1651C87.7836 41.0286 87.9883 40.9604 88.2507 40.9604C88.5131 40.9604 88.7126 41.0286 88.849 41.1651C88.996 41.291 89.0695 41.48 89.0695 41.7319C89.0695 41.9734 88.996 42.1676 88.849 42.3145C88.7126 42.451 88.5131 42.5192 88.2507 42.5192Z" fill="#4E5969"/>
<path d="M79.4263 52.093C79.2164 52.093 79.0589 52.0352 78.954 51.9198C78.849 51.7938 78.7965 51.6206 78.7965 51.4001V44.96C78.7965 44.7395 78.849 44.5716 78.954 44.4561C79.0589 44.3406 79.2164 44.2829 79.4263 44.2829C79.6258 44.2829 79.7833 44.3406 79.8987 44.4561C80.0142 44.5716 80.0719 44.7395 80.0719 44.96V51.4001C80.0719 51.6206 80.0142 51.7938 79.8987 51.9198C79.7938 52.0352 79.6363 52.093 79.4263 52.093ZM79.4263 42.5193C79.1639 42.5193 78.9592 42.4511 78.8122 42.3146C78.6653 42.1677 78.5918 41.9735 78.5918 41.732C78.5918 41.4801 78.6653 41.2911 78.8122 41.1651C78.9592 41.0287 79.1639 40.9604 79.4263 40.9604C79.6993 40.9604 79.904 41.0287 80.0404 41.1651C80.1874 41.2911 80.2609 41.4801 80.2609 41.732C80.2609 41.9735 80.1874 42.1677 80.0404 42.3146C79.904 42.4511 79.6993 42.5193 79.4263 42.5193Z" fill="#4E5969"/>
<path d="M70.4765 52.1248C70.2666 52.1248 70.1091 52.067 70.0041 51.9516C69.8992 51.8361 69.8467 51.6734 69.8467 51.4634V44.8973C69.8467 44.6874 69.8992 44.5299 70.0041 44.4249C70.1091 44.3094 70.2613 44.2517 70.4608 44.2517C70.6602 44.2517 70.8124 44.3094 70.9174 44.4249C71.0329 44.5299 71.0906 44.6874 71.0906 44.8973V46.2515L70.9174 46.0625C71.1379 45.4537 71.4948 44.997 71.9882 44.6926C72.492 44.3777 73.0694 44.2202 73.7202 44.2202C74.3291 44.2202 74.833 44.3304 75.2319 44.5509C75.6413 44.7713 75.9457 45.1072 76.1451 45.5586C76.3446 45.9995 76.4443 46.5611 76.4443 47.2435V51.4634C76.4443 51.6734 76.3866 51.8361 76.2711 51.9516C76.1661 52.067 76.0139 52.1248 75.8145 52.1248C75.6045 52.1248 75.4418 52.067 75.3263 51.9516C75.2214 51.8361 75.1689 51.6734 75.1689 51.4634V47.3222C75.1689 46.6084 75.0272 46.0888 74.7437 45.7633C74.4708 45.4274 74.0299 45.2595 73.4211 45.2595C72.7177 45.2595 72.1561 45.4799 71.7362 45.9208C71.3268 46.3512 71.1221 46.9286 71.1221 47.6529V51.4634C71.1221 51.9043 70.9069 52.1248 70.4765 52.1248Z" fill="#4E5969"/>
<path d="M62.9415 52.1557C62.2067 52.1557 61.5611 52.0612 61.0047 51.8723C60.4589 51.6728 59.997 51.3841 59.6191 51.0062C59.2412 50.6178 58.9577 50.1402 58.7688 49.5733C58.5798 49.0065 58.4854 48.3556 58.4854 47.6208V41.4641C58.4854 41.2436 58.5378 41.0809 58.6428 40.9759C58.7583 40.8605 58.921 40.8027 59.1309 40.8027C59.3409 40.8027 59.4984 40.8605 59.6033 40.9759C59.7188 41.0809 59.7765 41.2436 59.7765 41.4641V47.5578C59.7765 48.7125 60.0442 49.5786 60.5796 50.1559C61.115 50.7228 61.9023 51.0062 62.9415 51.0062C63.9808 51.0062 64.7628 50.7228 65.2877 50.1559C65.8126 49.5786 66.075 48.7125 66.075 47.5578V41.4641C66.075 41.2436 66.1327 41.0809 66.2482 40.9759C66.3637 40.8605 66.5264 40.8027 66.7363 40.8027C66.9358 40.8027 67.088 40.8605 67.193 40.9759C67.3084 41.0809 67.3662 41.2436 67.3662 41.4641V47.6208C67.3662 48.5971 67.1982 49.4264 66.8623 50.1087C66.5369 50.791 66.0435 51.3054 65.3822 51.6518C64.7208 51.9877 63.9073 52.1557 62.9415 52.1557Z" fill="#4E5969"/>
<defs>
<clipPath id="clip0_466_110881">
<rect width="44.0892" height="58.9356" fill="white"/>
</clipPath>
</defs>
</svg>
