<svg width="36" height="36" viewBox="0 0 36 36" fill="none" xmlns="http://www.w3.org/2000/svg">
<path d="M18.2499 0.125318C8.19693 -0.0104631 -0.0100969 8.19657 0.125684 18.2495C0.259747 27.8909 8.11014 35.7413 17.7515 35.8753C27.8062 36.0128 36.0115 27.8058 35.874 17.7528C35.7416 8.10977 27.8912 0.259381 18.2499 0.125318ZM29.1141 28.2484C29.0799 28.2854 29.0379 28.3144 28.9912 28.3334C28.9445 28.3524 28.8942 28.3609 28.8438 28.3583C28.7935 28.3556 28.7443 28.342 28.6999 28.3182C28.6554 28.2945 28.6167 28.2612 28.5865 28.2209C27.8178 27.2152 26.8765 26.3542 25.8064 25.678C23.6184 24.2738 20.8461 23.5003 18.0007 23.5003C15.1553 23.5003 12.3829 24.2738 10.195 25.678C9.12495 26.3538 8.18361 27.2146 7.4149 28.22C7.3847 28.2604 7.34599 28.2936 7.30151 28.3174C7.25703 28.3411 7.20787 28.3548 7.15752 28.3574C7.10717 28.36 7.05685 28.3515 7.01014 28.3326C6.96344 28.3136 6.92148 28.2845 6.88725 28.2475C4.36556 25.5253 2.93713 21.9683 2.87568 18.2581C2.73561 9.89555 9.59772 2.89594 17.9637 2.87532C26.3297 2.85469 33.1257 9.64805 33.1257 18.0003C33.1286 21.8 31.6957 25.4604 29.1141 28.2484Z" fill="#F7F8FA"/>
<path d="M18.0007 8.37532C16.306 8.37532 14.7737 9.0104 13.6849 10.1645C12.5961 11.3187 12.0521 12.9145 12.175 14.6273C12.4242 18.0003 15.0376 20.7503 18.0007 20.7503C20.9638 20.7503 23.572 18.0003 23.8264 14.6281C23.9536 12.9317 23.4139 11.3505 22.307 10.1749C21.2139 9.01469 19.6842 8.37532 18.0007 8.37532Z" fill="#F7F8FA"/>
</svg>
