<svg width="26" height="27" viewBox="0 0 26 27" fill="none" xmlns="http://www.w3.org/2000/svg">
<path d="M13 3.28113C7.1759 3.28113 2.4375 8.01953 2.4375 13.8436C2.4375 19.6677 7.1759 24.4061 13 24.4061C18.8241 24.4061 23.5625 19.6677 23.5625 13.8436C23.5625 8.01953 18.8241 3.28113 13 3.28113ZM13 19.5266C12.7991 19.5266 12.6028 19.467 12.4357 19.3554C12.2687 19.2438 12.1386 19.0852 12.0617 18.8996C11.9848 18.714 11.9647 18.5098 12.0039 18.3128C12.0431 18.1158 12.1398 17.9348 12.2818 17.7928C12.4239 17.6507 12.6048 17.554 12.8019 17.5148C12.9989 17.4756 13.2031 17.4957 13.3887 17.5726C13.5742 17.6495 13.7329 17.7797 13.8445 17.9467C13.9561 18.1137 14.0156 18.3101 14.0156 18.5109C14.0156 18.7803 13.9086 19.0386 13.7182 19.2291C13.5277 19.4196 13.2694 19.5266 13 19.5266ZM14.103 9.31191L13.8115 15.5072C13.8115 15.7227 13.7259 15.9294 13.5735 16.0817C13.4211 16.2341 13.2145 16.3197 12.999 16.3197C12.7835 16.3197 12.5768 16.2341 12.4245 16.0817C12.2721 15.9294 12.1865 15.7227 12.1865 15.5072L11.895 9.31496V9.31242C11.8886 9.16359 11.9124 9.01501 11.965 8.87562C12.0175 8.73624 12.0977 8.60893 12.2008 8.50136C12.3038 8.39379 12.4276 8.30819 12.5646 8.24971C12.7016 8.19124 12.849 8.16109 12.998 8.16109C13.1469 8.16109 13.2944 8.19124 13.4314 8.24971C13.5684 8.30819 13.6921 8.39379 13.7952 8.50136C13.8982 8.60893 13.9784 8.73624 14.031 8.87562C14.0835 9.01501 14.1073 9.16359 14.1009 9.31242L14.103 9.31191Z" fill="white"/>
</svg>
